<?xml version="1.0" standalone="no"?>
<!DOCTYPE svg PUBLIC "-//W3C//DTD SVG 20010904//EN"
 "http://www.w3.org/TR/2001/REC-SVG-20010904/DTD/svg10.dtd">
<svg version="1.0" xmlns="http://www.w3.org/2000/svg"
 width="512.000000pt" height="512.000000pt" viewBox="0 0 512.000000 512.000000"
 preserveAspectRatio="xMidYMid meet">
<metadata>
Created by potrace 1.14, written by Peter Selinger 2001-2017
</metadata>
<g transform="translate(0.000000,512.000000) scale(0.100000,-0.100000)"
fill="#000000" stroke="none">
<path d="M2325 5113 c-388 -45 -742 -332 -868 -705 -69 -201 -71 -464 -5 -663
45 -137 107 -245 214 -373 38 -45 64 -87 67 -106 6 -37 -16 -89 -46 -109 -66
-42 -125 -21 -204 72 -160 187 -258 399 -299 646 -19 118 -12 335 16 465 27
120 27 152 5 187 -22 33 -79 56 -119 47 -53 -11 -189 -79 -282 -140 -107 -70
-281 -240 -346 -339 -120 -182 -211 -431 -210 -578 0 -40 5 -54 28 -78 43 -44
82 -47 188 -11 126 42 175 52 282 59 80 5 98 3 121 -12 58 -38 75 -88 49 -149
-19 -45 -55 -63 -146 -70 -94 -8 -140 -15 -163 -27 -9 -5 -17 -8 -17 -5 0 2
-27 -6 -61 -19 -197 -78 -342 -209 -438 -395 -27 -52 -54 -117 -60 -145 -6
-27 -14 -61 -18 -75 -3 -14 -7 -72 -8 -130 -5 -257 104 -490 307 -654 91 -73
184 -46 219 63 29 89 169 294 220 322 34 18 79 22 110 9 32 -14 69 -66 69 -99
0 -32 -24 -82 -59 -121 -60 -67 -105 -145 -139 -240 -31 -90 -33 -101 -28
-195 6 -126 34 -204 109 -314 134 -196 433 -360 720 -396 32 -4 57 -11 57 -16
0 -5 -25 -95 -55 -201 -31 -106 -58 -200 -60 -208 -2 -8 -20 -73 -41 -145 -41
-145 -43 -172 -18 -211 34 -51 57 -54 395 -54 392 0 362 -13 429 185 125 365
322 760 480 960 57 73 144 158 195 190 62 40 107 55 182 61 205 15 221 17 328
41 230 50 468 168 656 324 93 78 102 114 53 216 -60 128 -131 144 -239 56 -84
-68 -160 -111 -250 -140 -67 -21 -99 -26 -195 -26 -128 0 -202 15 -306 64 -77
37 -114 77 -114 125 0 103 101 152 194 95 70 -43 190 -64 284 -49 99 16 142
56 142 132 0 27 -8 44 -35 71 -20 19 -42 35 -49 35 -8 0 -28 16 -46 37 -28 32
-31 41 -26 75 14 83 60 113 164 104 246 -21 431 -120 592 -315 53 -65 89 -82
139 -69 53 15 75 40 121 141 41 91 42 92 102 122 246 119 438 377 492 662 14
75 15 264 2 323 -3 14 -8 36 -11 49 -18 93 -89 244 -157 336 -144 193 -372
332 -610 371 -61 9 -227 12 -265 4 -21 -5 -54 -11 -74 -14 -20 -3 -69 -17
-110 -32 -349 -126 -590 -442 -616 -808 -3 -44 -11 -95 -18 -113 -34 -81 -152
-90 -201 -15 -12 18 -15 44 -13 96 7 200 7 201 -71 251 -57 36 -101 86 -131
150 -68 143 -30 258 84 257 37 0 47 -6 87 -50 50 -55 77 -72 114 -72 47 0 77
24 136 105 106 146 266 283 427 364 62 31 154 68 190 76 142 32 183 64 183
142 0 41 -4 50 -42 86 -122 116 -370 237 -538 263 -14 2 -51 8 -83 12 -31 5
-107 8 -169 6 l-111 -3 -61 43 c-134 95 -252 144 -431 182 -34 7 -245 12 -290
7z m174 -707 c48 -25 61 -67 56 -186 -2 -58 -6 -117 -9 -130 -3 -14 -8 -37
-10 -51 -16 -99 -96 -304 -138 -357 -13 -15 -17 -12 57 -47 260 -123 452 -367
534 -678 33 -124 45 -278 25 -326 -40 -95 -182 -87 -213 13 -5 17 -12 70 -16
117 -22 322 -228 607 -503 698 -34 12 -99 25 -145 30 -91 9 -116 20 -141 62
-41 69 8 159 95 173 122 20 219 241 234 538 2 37 11 80 20 97 28 55 97 76 154
47z m-1524 -230 c43 -18 69 -58 68 -104 -2 -67 -39 -103 -121 -117 -56 -9 -97
-50 -106 -105 -9 -60 -30 -95 -67 -112 -57 -28 -137 2 -157 60 -22 65 8 179
71 265 31 41 117 95 179 111 69 19 91 19 133 2z m3165 -595 c24 -17 31 -34 61
-139 8 -28 27 -56 55 -82 67 -62 133 -86 286 -105 95 -12 138 -96 90 -177 -22
-37 -57 -50 -131 -49 -107 2 -239 44 -331 104 -112 73 -199 205 -208 313 -6
69 3 99 34 127 46 40 95 43 144 8z m-3025 -387 c53 -34 59 -105 28 -304 -23
-150 -120 -332 -230 -431 -126 -113 -329 -165 -402 -103 -78 66 -44 183 58
200 104 17 141 34 200 93 92 92 145 223 157 386 4 44 12 95 20 112 26 64 108
87 169 47z m914 -649 c32 -16 61 -56 61 -83 0 -64 137 -119 336 -136 61 -5 88
-18 111 -52 35 -54 21 -125 -33 -161 -19 -12 -45 -16 -102 -15 -42 1 -88 4
-102 7 -14 3 -38 8 -55 10 -123 22 -220 69 -297 145 -63 64 -93 136 -82 200
14 78 95 121 163 85z m-666 -894 c152 -42 253 -133 263 -240 12 -128 -157
-177 -216 -62 -11 23 -34 48 -53 58 -49 26 -148 41 -234 36 -162 -10 -192 -2
-219 63 -23 54 -1 119 47 145 62 33 292 33 412 0z"/>
</g>
</svg>
